<svg xmlns="http://www.w3.org/2000/svg" viewBox="0 0 24 24" fill="none">
  <!-- Document background -->
  <rect x="4" y="2" width="16" height="20" fill="#ffffff" stroke="#333333" stroke-width="1" rx="1"/>
  
  <!-- Header section (blue like your resume) -->
  <rect x="4" y="2" width="16" height="5" fill="#0d3552" rx="1 1 0 0"/>
  
  <!-- Header lines (name/contact) -->
  <rect x="6" y="3.5" width="8" height="0.8" fill="#ffffff" rx="0.2"/>
  <rect x="6" y="5" width="6" height="0.5" fill="#ffffff" rx="0.2"/>
  
  <!-- Section dividers -->
  <rect x="6" y="9" width="12" height="0.8" fill="#e0e0e0" rx="0.2"/>
  <rect x="6" y="14" width="12" height="0.8" fill="#e0e0e0" rx="0.2"/>
  
  <!-- Content lines -->
  <rect x="6" y="10.5" width="10" height="0.4" fill="#666666" rx="0.1"/>
  <rect x="6" y="11.5" width="8" height="0.4" fill="#666666" rx="0.1"/>
  <rect x="6" y="12.5" width="9" height="0.4" fill="#666666" rx="0.1"/>
  
  <rect x="6" y="15.5" width="11" height="0.4" fill="#666666" rx="0.1"/>
  <rect x="6" y="16.5" width="7" height="0.4" fill="#666666" rx="0.1"/>
  <rect x="6" y="17.5" width="10" height="0.4" fill="#666666" rx="0.1"/>
  <rect x="6" y="18.5" width="6" height="0.4" fill="#666666" rx="0.1"/>
</svg>